<?xml version="1.0" encoding="UTF-8"?>
<svg id="Calque_1" xmlns="http://www.w3.org/2000/svg" version="1.1" viewBox="0 0 318.89 63.78">
  <!-- Generator: Adobe Illustrator 29.5.1, SVG Export Plug-In . SVG Version: 2.1.0 Build 141)  -->
  <defs>
    <style>
      .st0 {
        fill: #fff;
      }

      .st1 {
        fill: #2e2d2c;
      }
    </style>
  </defs>
  <polygon class="st0" points="287 0 0 0 0 31.89 31.88 63.78 318.89 63.78 318.89 31.89 287 0"/>
  <g>
    <path class="st1" d="M47.2,45.55h2.13l-2.71-13.7,1.4-2.95v-10.67h-2.13v-.7h12.31l11.49,7.14v14.4l-11.49,7.18h-10.99v-.7h-.01ZM66.68,39.11v-14.56l-6.65-4.19h-10.58v11.49l2.34,11.57h8.25l6.65-4.31h0Z"/>
    <path class="st1" d="M71.73,39.07v-7.18l1.44-2.95v-11.41h10.09l11.45,7.18v21.54h-11.53l-11.45-7.18ZM91.83,24.59l-6.69-4.18h-10.54v18.75l6.73,4.23h10.5v-18.79h0Z"/>
    <path class="st1" d="M97.49,31.85l1.4-2.91v-10.71h-2.13v-.7h7.18v.7h-2.17l-1.4,2.95v10.67l2.26,11.53h5.79l4.02-11.53,1.44-2.91v-10.71h-2.17v-.7h7.22v.7h-2.18l-1.44,2.95v10.67l2.3,11.53h5.79l8.74-25.15h-2.05v-.7h7.34v.7h-2.25l-9.68,28.02h-10.22l-1.72-8.82-3.04,8.82h-10.13l-2.87-14.4h-.03,0Z"/>
    <path class="st1" d="M141.85,45.51h2.09l-2.75-13.62,1.44-2.95v-10.66h-2.13v-.74h7.18v.74h-2.18l15.8,25.27v-25.27h-2.13v-.74h7.14v.74h-2.13v27.24h2.13v.74h-7.14v-.74h1.68l-16.08-25.73-.7,1.44v10.67l2.75,13.62h2.21v.74h-7.18v-.74h0Z"/>
    <path class="st1" d="M170.73,45.55h2.09l-2.75-13.66,1.44-2.95v-10.71h-2.13v-.7h7.18v.7h-2.17l-1.44,2.99v10.67l2.3,11.49h17.11v-2.13h.7v5h-22.32v-.7h0Z"/>
    <path class="st1" d="M195.1,39.07v-7.18l1.44-2.95v-11.41h10.09l11.45,7.18v21.54h-11.53l-11.45-7.18ZM215.2,24.59l-6.69-4.18h-10.54v18.75l6.73,4.23h10.5v-18.79h0Z"/>
    <path class="st1" d="M220.12,45.55h2.26l4.76-13.66,2.3-2.34,3.45-9.81-.49-1.4h-2.34v-.82h5.04l9.72,28.02h2.34v.7h-7.39v-.7h2.01l-2.21-6.48-10.63-3.74-3.53,10.22h2.01v.7h-7.3v-.7h0ZM233.58,21.96l-4.14,11.94,9.52,3.45-5.38-15.39h0Z"/>
    <path class="st1" d="M250.52,45.55h2.13l-2.71-13.7,1.4-2.95v-10.67h-2.13v-.7h12.31l11.49,7.14v14.4l-11.49,7.18h-10.99v-.7h-.01ZM270.01,39.11v-14.56l-6.65-4.19h-10.58v11.49l2.34,11.57h8.25l6.65-4.31h-.01Z"/>
  </g>
</svg>