<?xml version="1.0" encoding="UTF-8"?>
<svg id="Calque_1" xmlns="http://www.w3.org/2000/svg" version="1.1" viewBox="0 0 318.9 63.78">
  <!-- Generator: Adobe Illustrator 29.5.1, SVG Export Plug-In . SVG Version: 2.1.0 Build 141)  -->
  <defs>
    <style>
      .st0 {
        fill: #fff;
      }

      .st1 {
        fill: #2e2d2c;
      }
    </style>
  </defs>
  <polygon class="st0" points="287.01 0 0 0 0 31.89 31.89 63.78 318.9 63.78 318.9 31.89 287.01 0"/>
  <g>
    <g>
      <g>
        <path class="st1" d="M63.76,38.8v-7.13l1.35-2.91v-11.44h10.13l11.44,7.13v3.69h-2.83v-3.77l-6.64-4.14h-10.54v18.74l6.73,4.14h12.59v-2.13h.7v5.04h-11.48l-11.44-7.22h-.01Z"/>
        <path class="st1" d="M90.09,45.28h2.09l-2.71-13.57,1.39-2.99v-10.66h-2.13v-.74h12.26l7.13,4.47v-3.73h-2.17v-.74h12.22l8.61,5.37v22.6h2.13v.74h-7.17v-.74h2.17v-13.57l1.43-2.99v-5.25l-5.29-3.28h-10.54v11.52l2.75,13.57h2.22v.74h-7.18v-.74h2.09l-2.75-13.57,1.47-2.99v-5.25l-5.29-3.28h-10.54v11.52l2.75,13.57h2.18v.74h-7.13v-.74h0Z"/>
        <path class="st1" d="M132.28,45.32h2.13l-2.71-13.7,1.39-2.95v-10.66h-2.13v-.7h12.3l11.48,7.13v14.39l-11.48,7.17h-10.99v-.7.02h.01ZM151.76,38.88v-14.56l-6.64-4.18h-10.58v11.48l2.34,11.56h8.24s6.64-4.3,6.64-4.3Z"/>
        <path class="st1" d="M158.16,45.28h2.09l-2.71-13.57,1.39-2.99v-10.66h-2.13v-.74h12.26l7.13,4.47v-3.73h-2.17v-.74h12.22l8.61,5.37v22.6h2.13v.74h-7.17v-.74h2.17v-13.57l1.43-2.99v-5.25l-5.29-3.28h-10.54v11.52l2.75,13.57h2.22v.74h-7.18v-.74h2.09l-2.75-13.57,1.47-2.99v-5.25l-5.29-3.28h-10.54v11.52l2.75,13.57h2.18v.74h-7.13v-.74h0Z"/>
        <path class="st1" d="M199.04,45.32h2.26l4.76-13.66,2.3-2.34,3.45-9.8-.49-1.39h-2.34v-.82h5.04l9.72,28.01h2.34v.7h-7.38v-.7h2.01l-2.21-6.48-10.62-3.73-3.53,10.21h2.01v.7h-7.3v-.7h-.02ZM212.49,21.74l-4.14,11.93,9.51,3.45-5.37-15.38Z"/>
        <path class="st1" d="M228.11,38.8v-7.17h4.92v.7h-2.09v6.6l6.68,4.26h8.2l2.34-11.56v-10.66l-1.39-2.95h-2.17v-.7h7.21v.7h-2.21v10.7l1.52,2.91-2.75,13.7h2.05v.7h-10.87l-11.44-7.22h0Z"/>
        <path class="st1" d="M265.1,31.66l1.43-2.95v-10.66h-2.13v-.74h7.17v.74h-2.17l-1.43,2.95v10.66l2.3,11.48h5.82l8.69-25.1h-2.01v-.74h7.34v.74h-2.3l-9.72,27.97h-10.13l-2.87-14.35s.01,0,.01,0Z"/>
      </g>
      <g>
        <path class="st1" d="M53.5,46.01h-21.42l-7.28-7.28v-21.42h21.42l7.28,7.28v21.42h0ZM33.07,43.6h18.02v-18.02l-5.87-5.87h-18.02v18.02s5.87,5.87,5.87,5.87Z"/>
        <path class="st1" d="M45.13,37.65h-8.88l-3.1-3.1v-8.88h8.88l3.1,3.1v8.88ZM37.25,35.24h5.47v-5.47l-1.69-1.69h-5.47v5.47l1.69,1.69Z"/>
        <polygon class="st1" points="47.52 24.16 47.52 26.6 45.09 26.6 44.27 25.78 44.27 23.34 46.71 23.34 47.52 24.16"/>
      </g>
    </g>
    <polygon class="st1" points="261.02 43.89 261.02 46.47 258.44 46.47 255.85 43.89 255.85 41.3 258.44 41.3 261.02 43.89"/>
  </g>
</svg>